<svg width="29" height="30" viewBox="0 0 29 30" fill="none" xmlns="http://www.w3.org/2000/svg">
    <g clip-path="url(#clip0_448_4897)">
        <path d="M9.67403 20.0807C10.0401 19.7301 10.3985 19.3796 10.7802 19.0135C12.0343 19.8781 13.4442 20.1819 14.971 19.8704C16.1784 19.6211 17.1833 19.0057 17.97 18.0631C19.4734 16.2637 19.6604 13.662 18.2894 11.6522C16.8951 9.59576 14.4491 8.83238 12.229 9.54124C9.83761 10.3046 8.49779 12.4857 8.50558 14.6357C9.25339 14.6357 10.0012 14.6357 10.7412 14.6357C9.72856 15.6483 8.72369 16.6532 7.7344 17.6425C6.7529 16.6532 5.74024 15.6406 4.74316 14.6435C5.45202 14.6435 6.19983 14.6435 6.95543 14.6435C7.02554 12.3533 7.92914 10.4916 9.75193 9.1128C10.9593 8.19362 12.3537 7.74182 13.8727 7.74961C17.0275 7.77298 19.7305 9.8684 20.5251 12.8908C21.304 15.8665 19.9876 19.0369 17.3624 20.5714C14.6828 22.1371 11.5669 21.6152 9.67403 20.0807Z" fill="#7E7E7C"/>
        <path d="M15.3836 14.6356C15.3836 15.4769 14.6825 16.1702 13.8413 16.1702C13.0078 16.1624 12.3223 15.4691 12.3223 14.6356C12.3223 13.7944 13.0155 13.1011 13.8568 13.1011C14.6903 13.1089 15.3836 13.8021 15.3836 14.6356Z" fill="#7E7E7C"/>
    </g>
    <rect x="0.294881" y="0.430379" width="28.4102" height="28.4102" stroke="#7E7E7C" stroke-width="0.589762"/>
    <defs>
        <clipPath id="clip0_448_4897">
            <rect width="16" height="13.7722" fill="white" transform="translate(4.74316 7.74951)"/>
        </clipPath>
    </defs>
</svg>
